<svg y="0px" x="0px" fill="none" viewBox="2 18.25 96.5 66.5" xmlns="http://www.w3.org/2000/svg" style="max-height: 500px" width="96.5" height="66.5"><path fill="black" d="M32 21H8C6.89543 21 6 21.8954 6 23V27C6 28.1046 6.89543 29 8 29H32C33.1046 29 34 28.1046 34 27V23C34 21.8954 33.1046 21 32 21ZM8 20C6.34315 20 5 21.3431 5 23V27C5 28.6569 6.34315 30 8 30H32C33.6569 30 35 28.6569 35 27V23C35 21.3431 33.6569 20 32 20H8ZM14 31V69H15V31H14ZM85 31H84V40H75.5V31H74.5V40H73C71.3431 40 70 41.3431 70 43V44.5H27C26.1716 44.5 25.5 43.8284 25.5 43V31H24.5V43C24.5 44.3807 25.6193 45.5 27 45.5H70V54.5H27C25.6193 54.5 24.5 55.6193 24.5 57V68.5H25.5V57C25.5 56.1716 26.1716 55.5 27 55.5H70V57C70 58.6569 71.3431 60 73 60H74.5V69H75.5V60H84V69H85V60H87C88.6569 60 90 58.6569 90 57V43C90 41.3431 88.6569 40 87 40H85V31ZM81.5 38.5V37.5H78.5V38.5H81.5ZM78.5 37H78V37.5V38.5V39H78.5H81.5H82V38.5V37.5V37H81.5H78.5ZM18.5 37.5H21.5V38.5H18.5V37.5ZM18 37H18.5H21.5H22V37.5V38.5V39H21.5H18.5H18V38.5V37.5V37ZM18.5 40.5V41.5H21.5V40.5H18.5ZM18.5 40H18V40.5V41.5V42H18.5H21.5H22V41.5V40.5V40H21.5H18.5ZM21.5 43.5V44.5H18.5V43.5H21.5ZM18 43H18.5H21.5H22V43.5V44.5V45H21.5H18.5H18V44.5V43.5V43ZM18.5 55.5V56.5H21.5V55.5H18.5ZM18.5 55H18V55.5V56.5V57H18.5H21.5H22V56.5V55.5V55H21.5H18.5ZM21.5 58.5V59.5H18.5V58.5H21.5ZM18 58H18.5H21.5H22V58.5V59.5V60H21.5H18.5H18V59.5V58.5V58ZM18.5 61.5V62.5H21.5V61.5H18.5ZM18.5 61H18V61.5V62.5V63H18.5H21.5H22V62.5V61.5V61H21.5H18.5ZM67 52V51.5V48.5V48H67.5H68.5H69V48.5V51.5V52H68.5H67.5H67ZM44.5 48.5H43.5V51.5H44.5V48.5ZM43 51.5V52H43.5H44.5H45V51.5V48.5V48H44.5H43.5H43V48.5V51.5ZM56.5 51.5H55.5V48.5H56.5V51.5ZM55 52V51.5V48.5V48H55.5H56.5H57V48.5V51.5V52H56.5H55.5H55ZM31 51.5V52H31.5H32.5H33V51.5V48.5V48H32.5H31.5H31V48.5V51.5ZM64 52V51.5V48.5V48H64.5H65.5H66V48.5V51.5V52H65.5H64.5H64ZM41.5 48.5H40.5V51.5H41.5V48.5ZM40 51.5V52H40.5H41.5H42V51.5V48.5V48H41.5H40.5H40V48.5V51.5ZM53.5 51.5H52.5V48.5H53.5V51.5ZM52 52V51.5V48.5V48H52.5H53.5H54V48.5V51.5V52H53.5H52.5H52ZM29.5 48.5H28.5V51.5H29.5V48.5ZM28 51.5V52H28.5H29.5H30V51.5V48.5V48H29.5H28.5H28V48.5V51.5ZM62.5 51.5H61.5V48.5H62.5V51.5ZM61 52V51.5V48.5V48H61.5H62.5H63V48.5V51.5V52H62.5H61.5H61ZM38.5 48.5H37.5V51.5H38.5V48.5ZM68.5 51.5H67.5V48.5H68.5V51.5ZM37 51.5V52H37.5H38.5H39V51.5V48.5V48H38.5H37.5H37V48.5V51.5ZM50.5 51.5H49.5V48.5H50.5V51.5ZM49 52V51.5V48.5V48H49.5H50.5H51V48.5V51.5V52H50.5H49.5H49ZM26.5 48.5H25.5V51.5H26.5V48.5ZM25 51.5V52H25.5H26.5H27V51.5V48.5V48H26.5H25.5H25V48.5V51.5ZM59.5 51.5H58.5V48.5H59.5V51.5ZM65.5 51.5H64.5V48.5H65.5V51.5ZM58 52V51.5V48.5V48H58.5H59.5H60V48.5V51.5V52H59.5H58.5H58ZM34 51.5V52H34.5H35.5H36V51.5V48.5V48H35.5H34.5H34V48.5V51.5ZM47.5 51.5H46.5V48.5H47.5V51.5ZM46 52V51.5V48.5V48H46.5H47.5H48V48.5V51.5V52H47.5H46.5H46ZM81.5 62.5V61.5H78.5V62.5H81.5ZM78.5 61H78V61.5V62.5V63H78.5H81.5H82V62.5V61.5V61H81.5H78.5ZM83 33.5L82.4 33L80 31L77.6 33L77 33.5H77.5H77.781H78V34V35.5V36H78.5H81.5H82V35.5V34V33.5H82.219H82.5H83ZM80 31.6509L81.619 33H81.5V33.5V35.5H78.5V33.5V33H78.381L80 31.6509ZM22.4 33L23 33.5H22.5H22.219H22V34V35.5V36H21.5H18.5H18V35.5V34V33.5H17.781H17.5H17L17.6 33L20 31L22.4 33ZM21.619 33L20 31.6509L18.381 33H18.5V33.5V35.5H21.5V33.5V33H21.619ZM77 66.5L77.6 67L80 69L82.4 67L83 66.5H82.5H82.219H82V66V64.5V64H81.5H78.5H78V64.5V66V66.5H77.781H77.5H77ZM80 68.3491L78.381 67H78.5V66.5V64.5H81.5V66.5V67H81.619L80 68.3491ZM17.6 67L17 66.5H17.5H17.781H18V66V64.5V64H18.5H21.5H22V64.5V66V66.5H22.219H22.5H23L22.4 67L20 69L17.6 67ZM18.381 67L20 68.3491L21.619 67H21.5V66.5V64.5H18.5V66.5V67H18.381ZM32.5 48.5H31.5V51.5H32.5V48.5ZM24 48C24 48 23.946 48.003 23.8562 48C23.5699 47.9905 22.9204 47.9204 22.5 47.5C22.0796 47.0796 22.0095 46.4301 22 46.1438C21.997 46.054 22 46 22 46H21.4996H18V46.5V49C18 49.3567 18.1272 49.5733 18.291 49.7089C18.3641 49.7694 18.4444 49.8138 18.524 49.8474C18.645 49.8984 18.7642 49.9243 18.853 49.9435L18.853 49.9435C18.9416 49.9628 19 49.9755 19 50C19 50.0245 18.9416 50.0372 18.853 50.0565L18.853 50.0565C18.7642 50.0757 18.645 50.1016 18.524 50.1526C18.4444 50.1862 18.3641 50.2306 18.291 50.2911C18.1272 50.4267 18 50.6433 18 51V53.5V54H21.4996H22C22 54 21.997 53.946 22 53.8562C22.0095 53.5699 22.0796 52.9204 22.5 52.5C22.9204 52.0796 23.5699 52.0095 23.8562 52C23.946 51.997 24 52 24 52V51.4996V48.5004V48ZM23.3671 48.4489C23.4129 48.4573 23.4573 48.4644 23.5 48.4703V51.5297C23.4573 51.5356 23.4129 51.5427 23.3671 51.5511C23.0157 51.6153 22.5255 51.7674 22.1464 52.1464C21.7674 52.5255 21.6153 53.0157 21.5511 53.3671C21.5427 53.4129 21.5356 53.4573 21.5297 53.5H18.5V52.875V51C18.5 50.8374 18.539 50.7609 18.5646 50.7247C18.5928 50.6848 18.6361 50.6501 18.7049 50.6192C18.7776 50.5865 18.8568 50.5673 18.95 50.5471L18.9614 50.5446C18.9975 50.5368 19.06 50.5234 19.1117 50.5066C19.1384 50.4979 19.2052 50.4753 19.2737 50.4278C19.3413 50.381 19.5 50.2437 19.5 50C19.5 49.7563 19.3413 49.619 19.2737 49.5722C19.2052 49.5247 19.1384 49.5021 19.1117 49.4934C19.06 49.4766 18.9975 49.4632 18.9614 49.4554L18.95 49.4529C18.8568 49.4327 18.7776 49.4135 18.7049 49.3808C18.6361 49.3499 18.5928 49.3152 18.5646 49.2753C18.539 49.2391 18.5 49.1625 18.5 49V47.125V46.5H21.5297C21.5356 46.5427 21.5427 46.5871 21.5511 46.6329C21.6153 46.9843 21.7674 47.4745 22.1464 47.8536C22.5255 48.2326 23.0157 48.3847 23.3671 48.4489ZM73 41H87C88.1046 41 89 41.8954 89 43V57C89 58.1046 88.1046 59 87 59H73C71.8954 59 71 58.1046 71 57V43C71 41.8954 71.8954 41 73 41ZM10.6937 22C10.3524 22 10.1114 22.3343 10.2194 22.6581L10.9473 24.8419C10.9815 24.9445 10.9815 25.0555 10.9473 25.1581L10.2194 27.3419C10.1114 27.6657 10.3524 28 10.6937 28H11.6396C11.8548 28 12.0459 27.8623 12.114 27.6581L12.9473 25.1581C12.9815 25.0555 12.9815 24.9445 12.9473 24.8419L12.114 22.3419C12.0459 22.1377 11.8548 22 11.6396 22H10.6937ZM19.2194 22.6581C19.1114 22.3343 19.3524 22 19.6937 22H20.6396C20.8548 22 21.0459 22.1377 21.114 22.3419L21.9473 24.8419C21.9815 24.9445 21.9815 25.0555 21.9473 25.1581L21.114 27.6581C21.0459 27.8623 20.8548 28 20.6396 28H19.6937C19.3524 28 19.1114 27.6657 19.2194 27.3419L19.9473 25.1581C19.9815 25.0555 19.9815 24.9445 19.9473 24.8419L19.2194 22.6581ZM28.6937 22C28.3524 22 28.1115 22.3343 28.2194 22.6581L28.9473 24.8419C28.9815 24.9445 28.9815 25.0555 28.9473 25.1581L28.2194 27.3419C28.1115 27.6657 28.3524 28 28.6937 28H29.6396C29.8548 28 30.0459 27.8623 30.114 27.6581L30.9473 25.1581C30.9815 25.0555 30.9815 24.9445 30.9473 24.8419L30.114 22.3419C30.0459 22.1377 29.8548 22 29.6396 22H28.6937ZM8 71C6.89543 71 6 71.8954 6 73V77C6 78.1046 6.89543 79 8 79H32C33.1046 79 34 78.1046 34 77V73C34 71.8954 33.1046 71 32 71H8ZM8 70C6.34315 70 5 71.3431 5 73V77C5 78.6569 6.34315 80 8 80H32C33.6569 80 35 78.6569 35 77V73C35 71.3431 33.6569 70 32 70H8ZM10.6937 72C10.3524 72 10.1114 72.3343 10.2194 72.6581L10.9473 74.8419C10.9815 74.9445 10.9815 75.0555 10.9473 75.1581L10.2194 77.3419C10.1114 77.6657 10.3524 78 10.6937 78H11.6396C11.8548 78 12.0459 77.8623 12.114 77.6581L12.9473 75.1581C12.9815 75.0555 12.9815 74.9445 12.9473 74.8419L12.114 72.3419C12.0459 72.1377 11.8548 72 11.6396 72H10.6937ZM19.2194 72.6581C19.1114 72.3343 19.3524 72 19.6937 72H20.6396C20.8548 72 21.0459 72.1377 21.114 72.3419L21.9473 74.8419C21.9815 74.9445 21.9815 75.0555 21.9473 75.1581L21.114 77.6581C21.0459 77.8623 20.8548 78 20.6396 78H19.6937C19.3524 78 19.1114 77.6657 19.2194 77.3419L19.9473 75.1581C19.9815 75.0555 19.9815 74.9445 19.9473 74.8419L19.2194 72.6581ZM28.6937 72C28.3524 72 28.1115 72.3343 28.2194 72.6581L28.9473 74.8419C28.9815 74.9445 28.9815 75.0555 28.9473 75.1581L28.2194 77.3419C28.1115 77.6657 28.3524 78 28.6937 78H29.6396C29.8548 78 30.0459 77.8623 30.114 77.6581L30.9473 75.1581C30.9815 75.0555 30.9815 74.9445 30.9473 74.8419L30.114 72.3419C30.0459 72.1377 29.8548 72 29.6396 72H28.6937ZM92 21H68C66.8954 21 66 21.8954 66 23V27C66 28.1046 66.8954 29 68 29H92C93.1046 29 94 28.1046 94 27V23C94 21.8954 93.1046 21 92 21ZM68 20C66.3431 20 65 21.3431 65 23V27C65 28.6569 66.3431 30 68 30H92C93.6569 30 95 28.6569 95 27V23C95 21.3431 93.6569 20 92 20H68ZM70.6937 22C70.3524 22 70.1115 22.3343 70.2194 22.6581L70.9473 24.8419C70.9815 24.9445 70.9815 25.0555 70.9473 25.1581L70.2194 27.3419C70.1115 27.6657 70.3524 28 70.6937 28H71.6396C71.8548 28 72.0459 27.8623 72.114 27.6581L72.9473 25.1581C72.9815 25.0555 72.9815 24.9445 72.9473 24.8419L72.114 22.3419C72.0459 22.1377 71.8548 22 71.6396 22H70.6937ZM79.2194 22.6581C79.1115 22.3343 79.3524 22 79.6937 22H80.6396C80.8548 22 81.0459 22.1377 81.114 22.3419L81.9473 24.8419C81.9815 24.9445 81.9815 25.0555 81.9473 25.1581L81.114 27.6581C81.0459 27.8623 80.8548 28 80.6396 28H79.6937C79.3524 28 79.1115 27.6657 79.2194 27.3419L79.9473 25.1581C79.9815 25.0555 79.9815 24.9445 79.9473 24.8419L79.2194 22.6581ZM88.6937 22C88.3524 22 88.1115 22.3343 88.2194 22.6581L88.9473 24.8419C88.9815 24.9445 88.9815 25.0555 88.9473 25.1581L88.2194 27.3419C88.1115 27.6657 88.3524 28 88.6937 28H89.6396C89.8548 28 90.0459 27.8623 90.114 27.6581L90.9473 25.1581C90.9815 25.0555 90.9815 24.9445 90.9473 24.8419L90.114 22.3419C90.0459 22.1377 89.8548 22 89.6396 22H88.6937ZM68 71C66.8954 71 66 71.8954 66 73V77C66 78.1046 66.8954 79 68 79H92C93.1046 79 94 78.1046 94 77V73C94 71.8954 93.1046 71 92 71H68ZM68 70C66.3431 70 65 71.3431 65 73V77C65 78.6569 66.3431 80 68 80H92C93.6569 80 95 78.6569 95 77V73C95 71.3431 93.6569 70 92 70H68ZM70.6937 72C70.3524 72 70.1115 72.3343 70.2194 72.6581L70.9473 74.8419C70.9815 74.9445 70.9815 75.0555 70.9473 75.1581L70.2194 77.3419C70.1115 77.6657 70.3524 78 70.6937 78H71.6396C71.8548 78 72.0459 77.8623 72.114 77.6581L72.9473 75.1581C72.9815 75.0555 72.9815 74.9445 72.9473 74.8419L72.114 72.3419C72.0459 72.1377 71.8548 72 71.6396 72H70.6937ZM35.5 48.5H34.5V51.5H35.5V48.5ZM79.2194 72.6581C79.1115 72.3343 79.3524 72 79.6937 72H80.6396C80.8548 72 81.0459 72.1377 81.114 72.3419L81.9473 74.8419C81.9815 74.9445 81.9815 75.0555 81.9473 75.1581L81.114 77.6581C81.0459 77.8623 80.8548 78 80.6396 78H79.6937C79.3524 78 79.1115 77.6657 79.2194 77.3419L79.9473 75.1581C79.9815 75.0555 79.9815 74.9445 79.9473 74.8419L79.2194 72.6581ZM88.6937 72C88.3524 72 88.1115 72.3343 88.2194 72.6581L88.9473 74.8419C88.9815 74.9445 88.9815 75.0555 88.9473 75.1581L88.2194 77.3419C88.1115 77.6657 88.3524 78 88.6937 78H89.6396C89.8548 78 90.0459 77.8623 90.114 77.6581L90.9473 75.1581C90.9815 75.0555 90.9815 74.9445 90.9473 74.8419L90.114 72.3419C90.0459 72.1377 89.8548 72 89.6396 72H88.6937Z" clip-rule="evenodd" fill-rule="evenodd"/><text font-family="'Helvetica Neue', Helvetica, Arial-Unicode, Arial, Sans-serif" font-weight="bold" font-size="5px" fill="#000000" y="115" x="0">Created by kystudio</text><text font-family="'Helvetica Neue', Helvetica, Arial-Unicode, Arial, Sans-serif" font-weight="bold" font-size="5px" fill="#000000" y="120" x="0">from the Noun Project</text></svg>