<svg y="0px" x="0px" fill="none" viewBox="2 18.25 96.5 66.5" xmlns="http://www.w3.org/2000/svg" style="max-height: 500px" width="96.5" height="66.5"><path fill="black" d="M32 21H8C6.89543 21 6 21.8954 6 23V27C6 28.1046 6.89543 29 8 29H32C33.1046 29 34 28.1046 34 27V23C34 21.8954 33.1046 21 32 21ZM8 20C6.34315 20 5 21.3431 5 23V27C5 28.6569 6.34315 30 8 30H32C33.6569 30 35 28.6569 35 27V23C35 21.3431 33.6569 20 32 20H8ZM14 31V69H15V31H14ZM85 31H84V40H75.5V31H74.5V40H73C71.3431 40 70 41.3431 70 43V44.5H27C26.1716 44.5 25.5 43.8284 25.5 43V31H24.5V43C24.5 44.3807 25.6193 45.5 27 45.5H70V54.5H27C25.6193 54.5 24.5 55.6193 24.5 57V68.5H25.5V57C25.5 56.1716 26.1716 55.5 27 55.5H70V57C70 58.6569 71.3431 60 73 60H74.5V69H75.5V60H84V69H85V60H87C88.6569 60 90 58.6569 90 57V43C90 41.3431 88.6569 40 87 40H85V31ZM21.5 38.5V37.5H18.5V38.5H21.5ZM18.5 37H18V37.5V38.5V39H18.5H21.5H22V38.5V37.5V37H21.5H18.5ZM18.5 41.5V40.5H21.5V41.5H18.5ZM18 40H18.5H21.5H22V40.5V41.5V42H21.5H18.5H18V41.5V40.5V40ZM21.5 44.5V43.5H18.5V44.5H21.5ZM18.5 43H18V43.5V44.5V45H18.5H21.5H22V44.5V43.5V43H21.5H18.5ZM21.5 55.5V56.5H18.5V55.5H21.5ZM18 55H18.5H21.5H22V55.5V56.5V57H21.5H18.5H18V56.5V55.5V55ZM21.5 59.5V58.5H18.5V59.5H21.5ZM18.5 58H18V58.5V59.5V60H18.5H21.5H22V59.5V58.5V58H21.5H18.5ZM18.5 62.5V61.5H21.5V62.5H18.5ZM18 61H18.5H21.5H22V61.5V62.5V63H21.5H18.5H18V62.5V61.5V61ZM67 51.5V52H67.5H68.5H69V51.5V48.5V48H68.5H67.5H67V48.5V51.5ZM44.5 51.5H43.5V48.5H44.5V51.5ZM43 52V51.5V48.5V48H43.5H44.5H45V48.5V51.5V52H44.5H43.5H43ZM56.5 48.5H55.5V51.5H56.5V48.5ZM55 51.5V52H55.5H56.5H57V51.5V48.5V48H56.5H55.5H55V48.5V51.5ZM31 52V51.5V48.5V48H31.5H32.5H33V48.5V51.5V52H32.5H31.5H31ZM64 51.5V52H64.5H65.5H66V51.5V48.5V48H65.5H64.5H64V48.5V51.5ZM41.5 51.5H40.5V48.5H41.5V51.5ZM40 52V51.5V48.5V48H40.5H41.5H42V48.5V51.5V52H41.5H40.5H40ZM53.5 48.5H52.5V51.5H53.5V48.5ZM52 51.5V52H52.5H53.5H54V51.5V48.5V48H53.5H52.5H52V48.5V51.5ZM29.5 51.5H28.5V48.5H29.5V51.5ZM28 52V51.5V48.5V48H28.5H29.5H30V48.5V51.5V52H29.5H28.5H28ZM62.5 48.5H61.5V51.5H62.5V48.5ZM61 51.5V52H61.5H62.5H63V51.5V48.5V48H62.5H61.5H61V48.5V51.5ZM38.5 51.5H37.5V48.5H38.5V51.5ZM68.5 48.5H67.5V51.5H68.5V48.5ZM37 52V51.5V48.5V48H37.5H38.5H39V48.5V51.5V52H38.5H37.5H37ZM50.5 48.5H49.5V51.5H50.5V48.5ZM49 51.5V52H49.5H50.5H51V51.5V48.5V48H50.5H49.5H49V48.5V51.5ZM26.5 51.5H25.5V48.5H26.5V51.5ZM25 52V51.5V48.5V48H25.5H26.5H27V48.5V51.5V52H26.5H25.5H25ZM59.5 48.5H58.5V51.5H59.5V48.5ZM65.5 48.5H64.5V51.5H65.5V48.5ZM58 51.5V52H58.5H59.5H60V51.5V48.5V48H59.5H58.5H58V48.5V51.5ZM34 52V51.5V48.5V48H34.5H35.5H36V48.5V51.5V52H35.5H34.5H34ZM47.5 48.5H46.5V51.5H47.5V48.5ZM46 51.5V52H46.5H47.5H48V51.5V48.5V48H47.5H46.5H46V48.5V51.5ZM23 33.5L22.4 33L20 31L17.6 33L17 33.5H17.5H17.781H18V34V35.5V36H18.5H21.5H22V35.5V34V33.5H22.219H22.5H23ZM20 31.6509L21.619 33H21.5V33.5V35.5H18.5V33.5V33H18.381L20 31.6509ZM17.6 67L17 66.5H17.5H17.781H18V66V64.5V64H18.5H21.5H22V64.5V66V66.5H22.219H22.5H23L22.4 67L20 69L17.6 67ZM18.381 67L20 68.3491L21.619 67H21.5V66.5V64.5H18.5V66.5V67H18.381ZM24 48C24 48 23.946 48.003 23.8562 48C23.5699 47.9905 22.9204 47.9204 22.5 47.5C22.0796 47.0796 22.0095 46.4301 22 46.1438C21.997 46.054 22 46 22 46H21.4996H18V46.5V49C18 49.3758 18.1412 49.5888 18.3175 49.7165C18.3857 49.7659 18.4591 49.8025 18.5317 49.8308C18.6306 49.8693 18.7278 49.8925 18.8078 49.9115L18.8078 49.9115C18.9212 49.9385 19 49.9572 19 50C19 50.0428 18.9212 50.0615 18.8078 50.0885L18.8078 50.0885C18.7278 50.1075 18.6306 50.1307 18.5317 50.1692C18.4591 50.1975 18.3857 50.2341 18.3175 50.2835C18.1412 50.4112 18 50.6242 18 51V53.5V54H21.4996H22C22 54 21.997 53.946 22 53.8562C22.0095 53.5699 22.0796 52.9204 22.5 52.5C22.9204 52.0796 23.5699 52.0095 23.8562 52C23.946 51.997 24 52 24 52V51.4996V48.5004V48ZM23.3671 48.4489C23.4129 48.4573 23.4573 48.4644 23.5 48.4703V51.5297C23.4573 51.5356 23.4129 51.5427 23.3671 51.5511C23.0157 51.6153 22.5255 51.7674 22.1464 52.1464C21.7674 52.5255 21.6153 53.0157 21.5511 53.3671C21.5427 53.4129 21.5356 53.4573 21.5297 53.5H18.5V52.875V51C18.5 50.8373 18.539 50.7671 18.5604 50.7377C18.5848 50.7042 18.6243 50.6725 18.6951 50.6425C18.7638 50.6134 18.8314 50.5971 18.9221 50.5753L18.9617 50.5658L18.9652 50.5649C19.006 50.555 19.0883 50.5351 19.1631 50.5013L19.1631 50.5013C19.2029 50.4833 19.5 50.3489 19.5 50C19.5 49.6511 19.2029 49.5167 19.1631 49.4987L19.1631 49.4987C19.0883 49.4649 19.006 49.445 18.9652 49.4351L18.9652 49.4351L18.9617 49.4342L18.9221 49.4247C18.8314 49.4029 18.7638 49.3866 18.6951 49.3575C18.6243 49.3275 18.5848 49.2958 18.5604 49.2623C18.539 49.2329 18.5 49.1627 18.5 49V47.125V46.5H21.5297C21.5356 46.5427 21.5427 46.5871 21.5511 46.6329C21.6153 46.9843 21.7674 47.4745 22.1464 47.8536C22.5255 48.2326 23.0157 48.3847 23.3671 48.4489ZM73 41H87C88.1046 41 89 41.8954 89 43V57C89 58.1046 88.1046 59 87 59H73C71.8954 59 71 58.1046 71 57V43C71 41.8954 71.8954 41 73 41ZM10.6937 22C10.3524 22 10.1114 22.3343 10.2194 22.6581L10.9473 24.8419C10.9815 24.9445 10.9815 25.0555 10.9473 25.1581L10.2194 27.3419C10.1114 27.6657 10.3524 28 10.6937 28H11.6396C11.8548 28 12.0459 27.8623 12.114 27.6581L12.9473 25.1581C12.9815 25.0555 12.9815 24.9445 12.9473 24.8419L12.114 22.3419C12.0459 22.1377 11.8548 22 11.6396 22H10.6937ZM19.2194 22.6581C19.1114 22.3343 19.3524 22 19.6937 22H20.6396C20.8548 22 21.0459 22.1377 21.114 22.3419L21.9473 24.8419C21.9815 24.9445 21.9815 25.0555 21.9473 25.1581L21.114 27.6581C21.0459 27.8623 20.8548 28 20.6396 28H19.6937C19.3524 28 19.1114 27.6657 19.2194 27.3419L19.9473 25.1581C19.9815 25.0555 19.9815 24.9445 19.9473 24.8419L19.2194 22.6581ZM28.6937 22C28.3524 22 28.1115 22.3343 28.2194 22.6581L28.9473 24.8419C28.9815 24.9445 28.9815 25.0555 28.9473 25.1581L28.2194 27.3419C28.1115 27.6657 28.3524 28 28.6937 28H29.6396C29.8548 28 30.0459 27.8623 30.114 27.6581L30.9473 25.1581C30.9815 25.0555 30.9815 24.9445 30.9473 24.8419L30.114 22.3419C30.0459 22.1377 29.8548 22 29.6396 22H28.6937ZM32.5 51.5H31.5V48.5H32.5V51.5ZM8 71C6.89543 71 6 71.8954 6 73V77C6 78.1046 6.89543 79 8 79H32C33.1046 79 34 78.1046 34 77V73C34 71.8954 33.1046 71 32 71H8ZM8 70C6.34315 70 5 71.3431 5 73V77C5 78.6569 6.34315 80 8 80H32C33.6569 80 35 78.6569 35 77V73C35 71.3431 33.6569 70 32 70H8ZM10.6937 72C10.3524 72 10.1114 72.3343 10.2194 72.6581L10.9473 74.8419C10.9815 74.9445 10.9815 75.0555 10.9473 75.1581L10.2194 77.3419C10.1114 77.6657 10.3524 78 10.6937 78H11.6396C11.8548 78 12.0459 77.8623 12.114 77.6581L12.9473 75.1581C12.9815 75.0555 12.9815 74.9445 12.9473 74.8419L12.114 72.3419C12.0459 72.1377 11.8548 72 11.6396 72H10.6937ZM19.2194 72.6581C19.1114 72.3343 19.3524 72 19.6937 72H20.6396C20.8548 72 21.0459 72.1377 21.114 72.3419L21.9473 74.8419C21.9815 74.9445 21.9815 75.0555 21.9473 75.1581L21.114 77.6581C21.0459 77.8623 20.8548 78 20.6396 78H19.6937C19.3524 78 19.1114 77.6657 19.2194 77.3419L19.9473 75.1581C19.9815 75.0555 19.9815 74.9445 19.9473 74.8419L19.2194 72.6581ZM28.6937 72C28.3524 72 28.1115 72.3343 28.2194 72.6581L28.9473 74.8419C28.9815 74.9445 28.9815 75.0555 28.9473 75.1581L28.2194 77.3419C28.1115 77.6657 28.3524 78 28.6937 78H29.6396C29.8548 78 30.0459 77.8623 30.114 77.6581L30.9473 75.1581C30.9815 75.0555 30.9815 74.9445 30.9473 74.8419L30.114 72.3419C30.0459 72.1377 29.8548 72 29.6396 72H28.6937ZM92 21H68C66.8954 21 66 21.8954 66 23V27C66 28.1046 66.8954 29 68 29H92C93.1046 29 94 28.1046 94 27V23C94 21.8954 93.1046 21 92 21ZM68 20C66.3431 20 65 21.3431 65 23V27C65 28.6569 66.3431 30 68 30H92C93.6569 30 95 28.6569 95 27V23C95 21.3431 93.6569 20 92 20H68ZM70.6937 22C70.3524 22 70.1115 22.3343 70.2194 22.6581L70.9473 24.8419C70.9815 24.9445 70.9815 25.0555 70.9473 25.1581L70.2194 27.3419C70.1115 27.6657 70.3524 28 70.6937 28H71.6396C71.8548 28 72.0459 27.8623 72.114 27.6581L72.9473 25.1581C72.9815 25.0555 72.9815 24.9445 72.9473 24.8419L72.114 22.3419C72.0459 22.1377 71.8548 22 71.6396 22H70.6937ZM79.2194 22.6581C79.1115 22.3343 79.3524 22 79.6937 22H80.6396C80.8548 22 81.0459 22.1377 81.114 22.3419L81.9473 24.8419C81.9815 24.9445 81.9815 25.0555 81.9473 25.1581L81.114 27.6581C81.0459 27.8623 80.8548 28 80.6396 28H79.6937C79.3524 28 79.1115 27.6657 79.2194 27.3419L79.9473 25.1581C79.9815 25.0555 79.9815 24.9445 79.9473 24.8419L79.2194 22.6581ZM88.6937 22C88.3524 22 88.1115 22.3343 88.2194 22.6581L88.9473 24.8419C88.9815 24.9445 88.9815 25.0555 88.9473 25.1581L88.2194 27.3419C88.1115 27.6657 88.3524 28 88.6937 28H89.6396C89.8548 28 90.0459 27.8623 90.114 27.6581L90.9473 25.1581C90.9815 25.0555 90.9815 24.9445 90.9473 24.8419L90.114 22.3419C90.0459 22.1377 89.8548 22 89.6396 22H88.6937ZM92 71H68C66.8954 71 66 71.8954 66 73V77C66 78.1046 66.8954 79 68 79H92C93.1046 79 94 78.1046 94 77V73C94 71.8954 93.1046 71 92 71ZM68 70C66.3431 70 65 71.3431 65 73V77C65 78.6569 66.3431 80 68 80H92C93.6569 80 95 78.6569 95 77V73C95 71.3431 93.6569 70 92 70H68ZM70.6937 72C70.3524 72 70.1115 72.3343 70.2194 72.6581L70.9473 74.8419C70.9815 74.9445 70.9815 75.0555 70.9473 75.1581L70.2194 77.3419C70.1115 77.6657 70.3524 78 70.6937 78H71.6396C71.8548 78 72.0459 77.8623 72.114 77.6581L72.9473 75.1581C72.9815 75.0555 72.9815 74.9445 72.9473 74.8419L72.114 72.3419C72.0459 72.1377 71.8548 72 71.6396 72H70.6937ZM79.2194 72.6581C79.1115 72.3343 79.3524 72 79.6937 72H80.6396C80.8548 72 81.0459 72.1377 81.114 72.3419L81.9473 74.8419C81.9815 74.9445 81.9815 75.0555 81.9473 75.1581L81.114 77.6581C81.0459 77.8623 80.8548 78 80.6396 78H79.6937C79.3524 78 79.1115 77.6657 79.2194 77.3419L79.9473 75.1581C79.9815 75.0555 79.9815 74.9445 79.9473 74.8419L79.2194 72.6581ZM88.6937 72C88.3524 72 88.1115 72.3343 88.2194 72.6581L88.9473 74.8419C88.9815 74.9445 88.9815 75.0555 88.9473 75.1581L88.2194 77.3419C88.1115 77.6657 88.3524 78 88.6937 78H89.6396C89.8548 78 90.0459 77.8623 90.114 77.6581L90.9473 75.1581C90.9815 75.0555 90.9815 74.9445 90.9473 74.8419L90.114 72.3419C90.0459 72.1377 89.8548 72 89.6396 72H88.6937ZM35.5 51.5H34.5V48.5H35.5V51.5Z" clip-rule="evenodd" fill-rule="evenodd"/><text font-family="'Helvetica Neue', Helvetica, Arial-Unicode, Arial, Sans-serif" font-weight="bold" font-size="5px" fill="#000000" y="115" x="0">Created by kystudio</text><text font-family="'Helvetica Neue', Helvetica, Arial-Unicode, Arial, Sans-serif" font-weight="bold" font-size="5px" fill="#000000" y="120" x="0">from the Noun Project</text></svg>