<svg y="0px" x="0px" fill="none" viewBox="2 18.25 96.5 66.5" xmlns="http://www.w3.org/2000/svg" style="max-height: 500px" width="96.5" height="66.5"><path fill="black" d="M8 20C6.34315 20 5 21.3431 5 23V27C5 28.6569 6.34315 30 8 30H32C33.6569 30 35 28.6569 35 27V23C35 21.3431 33.6569 20 32 20H8ZM10.6937 22C10.3524 22 10.1114 22.3343 10.2194 22.6581L10.9473 24.8419C10.9815 24.9445 10.9815 25.0555 10.9473 25.1581L10.2194 27.3419C10.1114 27.6657 10.3524 28 10.6937 28H11.6396C11.8548 28 12.0459 27.8623 12.114 27.6581L12.9473 25.1581C12.9815 25.0555 12.9815 24.9445 12.9473 24.8419L12.114 22.3419C12.0459 22.1377 11.8548 22 11.6396 22H10.6937ZM19.2194 22.6581C19.1115 22.3343 19.3524 22 19.6937 22H20.6396C20.8548 22 21.0459 22.1377 21.114 22.3419L21.9473 24.8419C21.9815 24.9445 21.9815 25.0555 21.9473 25.1581L21.114 27.6581C21.0459 27.8623 20.8548 28 20.6396 28H19.6937C19.3524 28 19.1115 27.6657 19.2194 27.3419L19.9473 25.1581C19.9815 25.0555 19.9815 24.9445 19.9473 24.8419L19.2194 22.6581ZM28.6937 22C28.3524 22 28.1115 22.3343 28.2194 22.6581L28.9473 24.8419C28.9815 24.9445 28.9815 25.0555 28.9473 25.1581L28.2194 27.3419C28.1115 27.6657 28.3524 28 28.6937 28H29.6396C29.8548 28 30.0459 27.8623 30.114 27.6581L30.9473 25.1581C30.9815 25.0555 30.9815 24.9445 30.9473 24.8419L30.114 22.3419C30.0459 22.1377 29.8548 22 29.6396 22H28.6937ZM14 69V31H16V69H14ZM84 40V31H86V40H87C88.6569 40 90 41.3431 90 43V57C90 58.6569 88.6569 60 87 60H86V69H84V60H76V69H74V60H73C71.3431 60 70 58.6569 70 57V56H27C26.4477 56 26 56.4477 26 57V68.5H24V57C24 55.3431 25.3431 54 27 54H70V46H27C25.3431 46 24 44.6569 24 43V31H26V43C26 43.5523 26.4477 44 27 44H70V43C70 41.3431 71.3431 40 73 40H74V31H76V40H84ZM78 39V37H82V39H78ZM22 37H18V39H22V37ZM22 40V42H18V40H22ZM18 43V45H22V43H18ZM22 55V57H18V55H22ZM18 58V60H22V58H18ZM22 61V63H18V61H22ZM45 52H43V48H45V52ZM57 48H55V52H57V48ZM42 52H40V48H42V52ZM54 48H52V52H54V48ZM69 48H67V52H69V48ZM30 52H28V48H30V52ZM63 48H61V52H63V48ZM66 48H64V52H66V48ZM39 52H37V48H39V52ZM51 48H49V52H51V48ZM60 48H58V52H60V48ZM33 52H31V48H33V52ZM48 48H46V52H48V48ZM78 63V61H82V63H78ZM80 31L77 33.5H78V36H82V33.5H83L80 31ZM17 33.5L20 31L23 33.5H22V36H18V33.5H17ZM80 69L83 66.5H82V64H78V66.5H77L80 69ZM23 66.5L20 69L17 66.5H18V64H22V66.5H23ZM22 46H18V49C18 50 19 50 19 50C19 50 18 50 18 51V54H22C22 54 21.9477 53.0523 22.5 52.5C23.0523 51.9477 24 52 24 52V48C24 48 23.0523 48.0523 22.5 47.5C21.9477 46.9477 22 46 22 46ZM5 73C5 71.3431 6.34315 70 8 70H32C33.6569 70 35 71.3431 35 73V77C35 78.6569 33.6569 80 32 80H8C6.34315 80 5 78.6569 5 77V73ZM36 52H34V48H36V52ZM27 52H25V48H27V52ZM10.2194 72.6581C10.1114 72.3344 10.3524 72 10.6937 72H11.6396C11.8548 72 12.0459 72.1377 12.114 72.3419L12.9473 74.8419C12.9815 74.9445 12.9815 75.0555 12.9473 75.1581L12.114 77.6581C12.0459 77.8623 11.8548 78 11.6396 78H10.6937C10.3524 78 10.1114 77.6656 10.2194 77.3419L10.9473 75.1581C10.9815 75.0555 10.9815 74.9445 10.9473 74.8419L10.2194 72.6581ZM19.6937 72C19.3524 72 19.1115 72.3344 19.2194 72.6581L19.9473 74.8419C19.9815 74.9445 19.9815 75.0555 19.9473 75.1581L19.2194 77.3419C19.1115 77.6656 19.3524 78 19.6937 78H20.6396C20.8548 78 21.0459 77.8623 21.114 77.6581L21.9473 75.1581C21.9815 75.0555 21.9815 74.9445 21.9473 74.8419L21.114 72.3419C21.0459 72.1377 20.8548 72 20.6396 72H19.6937ZM28.2194 72.6581C28.1115 72.3344 28.3524 72 28.6937 72H29.6396C29.8548 72 30.0459 72.1377 30.114 72.3419L30.9473 74.8419C30.9815 74.9445 30.9815 75.0555 30.9473 75.1581L30.114 77.6581C30.0459 77.8623 29.8548 78 29.6396 78H28.6937C28.3524 78 28.1115 77.6656 28.2194 77.3419L28.9473 75.1581C28.9815 75.0555 28.9815 74.9445 28.9473 74.8419L28.2194 72.6581ZM68 20C66.3431 20 65 21.3431 65 23V27C65 28.6569 66.3431 30 68 30H92C93.6569 30 95 28.6569 95 27V23C95 21.3431 93.6569 20 92 20H68ZM70.6937 22C70.3524 22 70.1115 22.3343 70.2194 22.6581L70.9473 24.8419C70.9815 24.9445 70.9815 25.0555 70.9473 25.1581L70.2194 27.3419C70.1115 27.6657 70.3524 28 70.6937 28H71.6396C71.8548 28 72.0459 27.8623 72.114 27.6581L72.9473 25.1581C72.9815 25.0555 72.9815 24.9445 72.9473 24.8419L72.114 22.3419C72.0459 22.1377 71.8548 22 71.6396 22H70.6937ZM79.2194 22.6581C79.1115 22.3343 79.3524 22 79.6937 22H80.6396C80.8548 22 81.0459 22.1377 81.114 22.3419L81.9473 24.8419C81.9815 24.9445 81.9815 25.0555 81.9473 25.1581L81.114 27.6581C81.0459 27.8623 80.8548 28 80.6396 28H79.6937C79.3524 28 79.1115 27.6657 79.2194 27.3419L79.9473 25.1581C79.9815 25.0555 79.9815 24.9445 79.9473 24.8419L79.2194 22.6581ZM88.6937 22C88.3524 22 88.1115 22.3343 88.2194 22.6581L88.9473 24.8419C88.9815 24.9445 88.9815 25.0555 88.9473 25.1581L88.2194 27.3419C88.1115 27.6657 88.3524 28 88.6937 28H89.6396C89.8548 28 90.0459 27.8623 90.114 27.6581L90.9473 25.1581C90.9815 25.0555 90.9815 24.9445 90.9473 24.8419L90.114 22.3419C90.0459 22.1377 89.8548 22 89.6396 22H88.6937ZM65 73C65 71.3431 66.3431 70 68 70H92C93.6569 70 95 71.3431 95 73V77C95 78.6569 93.6569 80 92 80H68C66.3431 80 65 78.6569 65 77V73ZM70.2194 72.6581C70.1115 72.3344 70.3524 72 70.6937 72H71.6396C71.8548 72 72.0459 72.1377 72.114 72.3419L72.9473 74.8419C72.9815 74.9445 72.9815 75.0555 72.9473 75.1581L72.114 77.6581C72.0459 77.8623 71.8548 78 71.6396 78H70.6937C70.3524 78 70.1115 77.6656 70.2194 77.3419L70.9473 75.1581C70.9815 75.0555 70.9815 74.9445 70.9473 74.8419L70.2194 72.6581ZM79.6937 72C79.3524 72 79.1115 72.3344 79.2194 72.6581L79.9473 74.8419C79.9815 74.9445 79.9815 75.0555 79.9473 75.1581L79.2194 77.3419C79.1115 77.6656 79.3524 78 79.6937 78H80.6396C80.8548 78 81.0459 77.8623 81.114 77.6581L81.9473 75.1581C81.9815 75.0555 81.9815 74.9445 81.9473 74.8419L81.114 72.3419C81.0459 72.1377 80.8548 72 80.6396 72H79.6937ZM88.2194 72.6581C88.1115 72.3344 88.3524 72 88.6937 72H89.6396C89.8548 72 90.0459 72.1377 90.114 72.3419L90.9473 74.8419C90.9815 74.9445 90.9815 75.0555 90.9473 75.1581L90.114 77.6581C90.0459 77.8623 89.8548 78 89.6396 78H88.6937C88.3524 78 88.1115 77.6656 88.2194 77.3419L88.9473 75.1581C88.9815 75.0555 88.9815 74.9445 88.9473 74.8419L88.2194 72.6581Z" clip-rule="evenodd" fill-rule="evenodd"/><text font-family="'Helvetica Neue', Helvetica, Arial-Unicode, Arial, Sans-serif" font-weight="bold" font-size="5px" fill="#000000" y="115" x="0">Created by kystudio</text><text font-family="'Helvetica Neue', Helvetica, Arial-Unicode, Arial, Sans-serif" font-weight="bold" font-size="5px" fill="#000000" y="120" x="0">from the Noun Project</text></svg>