<svg y="0px" x="0px" fill="none" viewBox="2 18.25 96.5 66.5" xmlns="http://www.w3.org/2000/svg" style="max-height: 500px" width="96.5" height="66.5"><path fill="black" d="M32 21H8C6.89543 21 6 21.8954 6 23V27C6 28.1046 6.89543 29 8 29H32C33.1046 29 34 28.1046 34 27V23C34 21.8954 33.1046 21 32 21ZM8 20C6.34315 20 5 21.3431 5 23V27C5 28.6569 6.34315 30 8 30H32C33.6569 30 35 28.6569 35 27V23C35 21.3431 33.6569 20 32 20H8ZM14 31V69H15V31H14ZM84 40H75.5V31H74.5V40H73C71.3431 40 70 41.3431 70 43V44.5H27C26.1716 44.5 25.5 43.8284 25.5 43V31H24.5V43C24.5 44.3807 25.6193 45.5 27 45.5H70V54.5H27C25.6193 54.5 24.5 55.6193 24.5 57V68.5H25.5V57C25.5 56.1716 26.1716 55.5 27 55.5H70V57C70 58.6569 71.3431 60 73 60H74.5V69H75.5V60H84V69H85V60H87C88.6569 60 90 58.6569 90 57V43C90 41.3431 88.6569 40 87 40H85V31H84V40ZM87 41C88.1046 41 89 41.8954 89 43V57C89 58.1046 88.1046 59 87 59H73C71.8954 59 71 58.1046 71 57V43C71 41.8954 71.8954 41 73 41H87ZM78.5 37.5V38.5H81.5V37.5H78.5ZM78.5 37H78V37.5V38.5V39H78.5H81.5H82V38.5V37.5V37H81.5H78.5ZM81.5 61.5V62.5H78.5V61.5H81.5ZM78 61H78.5H81.5H82V61.5V62.5V63H81.5H78.5H78V62.5V61.5V61ZM82.4 33L83 33.5H82.5H82.219H82V34V35.5V36H81.5H78.5H78V35.5V34V33.5H77.781H77.5H77L77.6 33L80 31L82.4 33ZM81.619 33L80 31.6509L78.381 33H78.5V33.5V35.5H81.5V33.5V33H81.619ZM77 66.5L77.6 67L80 69L82.4 67L83 66.5H82.5H82.219H82V66V64.5V64H81.5H78.5H78V64.5V66V66.5H77.781H77.5H77ZM80 68.3491L78.381 67H78.5V66.5V64.5H81.5V66.5V67H81.619L80 68.3491ZM10.6937 22C10.3524 22 10.1114 22.3343 10.2194 22.6581L10.9473 24.8419C10.9815 24.9445 10.9815 25.0555 10.9473 25.1581L10.2194 27.3419C10.1114 27.6657 10.3524 28 10.6937 28H11.6396C11.8548 28 12.0459 27.8623 12.114 27.6581L12.9473 25.1581C12.9815 25.0555 12.9815 24.9445 12.9473 24.8419L12.114 22.3419C12.0459 22.1377 11.8548 22 11.6396 22H10.6937ZM19.2194 22.6581C19.1114 22.3343 19.3524 22 19.6937 22H20.6396C20.8548 22 21.0459 22.1377 21.114 22.3419L21.9473 24.8419C21.9815 24.9445 21.9815 25.0555 21.9473 25.1581L21.114 27.6581C21.0459 27.8623 20.8548 28 20.6396 28H19.6937C19.3524 28 19.1114 27.6657 19.2194 27.3419L19.9473 25.1581C19.9815 25.0555 19.9815 24.9445 19.9473 24.8419L19.2194 22.6581ZM28.6937 22C28.3524 22 28.1115 22.3343 28.2194 22.6581L28.9473 24.8419C28.9815 24.9445 28.9815 25.0555 28.9473 25.1581L28.2194 27.3419C28.1115 27.6657 28.3524 28 28.6937 28H29.6396C29.8548 28 30.0459 27.8623 30.114 27.6581L30.9473 25.1581C30.9815 25.0555 30.9815 24.9445 30.9473 24.8419L30.114 22.3419C30.0459 22.1377 29.8548 22 29.6396 22H28.6937ZM32 71H8C6.89543 71 6 71.8954 6 73V77C6 78.1046 6.89543 79 8 79H32C33.1046 79 34 78.1046 34 77V73C34 71.8954 33.1046 71 32 71ZM8 70C6.34315 70 5 71.3431 5 73V77C5 78.6569 6.34315 80 8 80H32C33.6569 80 35 78.6569 35 77V73C35 71.3431 33.6569 70 32 70H8ZM10.6937 72C10.3524 72 10.1114 72.3343 10.2194 72.6581L10.9473 74.8419C10.9815 74.9445 10.9815 75.0555 10.9473 75.1581L10.2194 77.3419C10.1114 77.6657 10.3524 78 10.6937 78H11.6396C11.8548 78 12.0459 77.8623 12.114 77.6581L12.9473 75.1581C12.9815 75.0555 12.9815 74.9445 12.9473 74.8419L12.114 72.3419C12.0459 72.1377 11.8548 72 11.6396 72H10.6937ZM19.2194 72.6581C19.1114 72.3343 19.3524 72 19.6937 72H20.6396C20.8548 72 21.0459 72.1377 21.114 72.3419L21.9473 74.8419C21.9815 74.9445 21.9815 75.0555 21.9473 75.1581L21.114 77.6581C21.0459 77.8623 20.8548 78 20.6396 78H19.6937C19.3524 78 19.1114 77.6657 19.2194 77.3419L19.9473 75.1581C19.9815 75.0555 19.9815 74.9445 19.9473 74.8419L19.2194 72.6581ZM28.6937 72C28.3524 72 28.1115 72.3343 28.2194 72.6581L28.9473 74.8419C28.9815 74.9445 28.9815 75.0555 28.9473 75.1581L28.2194 77.3419C28.1115 77.6657 28.3524 78 28.6937 78H29.6396C29.8548 78 30.0459 77.8623 30.114 77.6581L30.9473 75.1581C30.9815 75.0555 30.9815 74.9445 30.9473 74.8419L30.114 72.3419C30.0459 72.1377 29.8548 72 29.6396 72H28.6937ZM92 21H68C66.8954 21 66 21.8954 66 23V27C66 28.1046 66.8954 29 68 29H92C93.1046 29 94 28.1046 94 27V23C94 21.8954 93.1046 21 92 21ZM68 20C66.3431 20 65 21.3431 65 23V27C65 28.6569 66.3431 30 68 30H92C93.6569 30 95 28.6569 95 27V23C95 21.3431 93.6569 20 92 20H68ZM70.6937 22C70.3524 22 70.1115 22.3343 70.2194 22.6581L70.9473 24.8419C70.9815 24.9445 70.9815 25.0555 70.9473 25.1581L70.2194 27.3419C70.1115 27.6657 70.3524 28 70.6937 28H71.6396C71.8548 28 72.0459 27.8623 72.114 27.6581L72.9473 25.1581C72.9815 25.0555 72.9815 24.9445 72.9473 24.8419L72.114 22.3419C72.0459 22.1377 71.8548 22 71.6396 22H70.6937ZM79.2194 22.6581C79.1115 22.3343 79.3524 22 79.6937 22H80.6396C80.8548 22 81.0459 22.1377 81.114 22.3419L81.9473 24.8419C81.9815 24.9445 81.9815 25.0555 81.9473 25.1581L81.114 27.6581C81.0459 27.8623 80.8548 28 80.6396 28H79.6937C79.3524 28 79.1115 27.6657 79.2194 27.3419L79.9473 25.1581C79.9815 25.0555 79.9815 24.9445 79.9473 24.8419L79.2194 22.6581ZM88.6937 22C88.3524 22 88.1115 22.3343 88.2194 22.6581L88.9473 24.8419C88.9815 24.9445 88.9815 25.0555 88.9473 25.1581L88.2194 27.3419C88.1115 27.6657 88.3524 28 88.6937 28H89.6396C89.8548 28 90.0459 27.8623 90.114 27.6581L90.9473 25.1581C90.9815 25.0555 90.9815 24.9445 90.9473 24.8419L90.114 22.3419C90.0459 22.1377 89.8548 22 89.6396 22H88.6937ZM68 71C66.8954 71 66 71.8954 66 73V77C66 78.1046 66.8954 79 68 79H92C93.1046 79 94 78.1046 94 77V73C94 71.8954 93.1046 71 92 71H68ZM68 70C66.3431 70 65 71.3431 65 73V77C65 78.6569 66.3431 80 68 80H92C93.6569 80 95 78.6569 95 77V73C95 71.3431 93.6569 70 92 70H68ZM70.6937 72C70.3524 72 70.1115 72.3343 70.2194 72.6581L70.9473 74.8419C70.9815 74.9445 70.9815 75.0555 70.9473 75.1581L70.2194 77.3419C70.1115 77.6657 70.3524 78 70.6937 78H71.6396C71.8548 78 72.0459 77.8623 72.114 77.6581L72.9473 75.1581C72.9815 75.0555 72.9815 74.9445 72.9473 74.8419L72.114 72.3419C72.0459 72.1377 71.8548 72 71.6396 72H70.6937ZM79.2194 72.6581C79.1115 72.3343 79.3524 72 79.6937 72H80.6396C80.8548 72 81.0459 72.1377 81.114 72.3419L81.9473 74.8419C81.9815 74.9445 81.9815 75.0555 81.9473 75.1581L81.114 77.6581C81.0459 77.8623 80.8548 78 80.6396 78H79.6937C79.3524 78 79.1115 77.6657 79.2194 77.3419L79.9473 75.1581C79.9815 75.0555 79.9815 74.9445 79.9473 74.8419L79.2194 72.6581ZM88.6937 72C88.3524 72 88.1115 72.3343 88.2194 72.6581L88.9473 74.8419C88.9815 74.9445 88.9815 75.0555 88.9473 75.1581L88.2194 77.3419C88.1115 77.6657 88.3524 78 88.6937 78H89.6396C89.8548 78 90.0459 77.8623 90.114 77.6581L90.9473 75.1581C90.9815 75.0555 90.9815 74.9445 90.9473 74.8419L90.114 72.3419C90.0459 72.1377 89.8548 72 89.6396 72H88.6937Z" clip-rule="evenodd" fill-rule="evenodd"/><text font-family="'Helvetica Neue', Helvetica, Arial-Unicode, Arial, Sans-serif" font-weight="bold" font-size="5px" fill="#000000" y="115" x="0">Created by kystudio</text><text font-family="'Helvetica Neue', Helvetica, Arial-Unicode, Arial, Sans-serif" font-weight="bold" font-size="5px" fill="#000000" y="120" x="0">from the Noun Project</text></svg>